<svg width="256" height="256" viewBox="0 0 256 256" fill="none" xmlns="http://www.w3.org/2000/svg">
<g clip-path="url(#clip0_821_7)">
<rect width="256" height="256" fill="#F4F4F4"/>
<path fill-rule="evenodd" clip-rule="evenodd" d="M200 24C217.673 24 232 38.3269 232 56V102.059C232 110.546 228.629 118.685 222.627 124.686L120.429 226.885C110.623 236.691 94.9449 239.535 82.5883 231.445C59.4748 216.313 39.6872 196.525 24.5549 173.412C16.4651 161.055 19.3091 145.377 29.1152 135.571L131.314 33.3726C137.315 27.3714 145.454 24 153.941 24H200ZM188 80C181.373 80 176 74.6274 176 68C176 61.3726 181.373 56 188 56C194.627 56 200 61.3726 200 68C200 74.6274 194.627 80 188 80Z" fill="url(#paint0_linear_821_7)"/>
</g>
<defs>
<linearGradient id="paint0_linear_821_7" x1="125.921" y1="24" x2="125.921" y2="236.159" gradientUnits="userSpaceOnUse">
<stop stop-color="#DF4B4B"/>
<stop offset="1" stop-color="#FF7777"/>
</linearGradient>
<clipPath id="clip0_821_7">
<rect width="256" height="256" fill="white"/>
</clipPath>
</defs>
</svg>
